<svg width="108" height="32" viewBox="0 0 108 32" fill="none" stroke="none" xmlns="http://www.w3.org/2000/svg">
<path fill-rule="evenodd" clip-rule="evenodd" d="M39.4216 9.38702L32.9492 20.2218H29.2881L22.8156 9.38702C22.673 9.13452 22.4237 9.24353 22.4237 9.45969V24.433H20.1359V9.14989L20.1358 9.04788C20.1341 8.42553 20.1331 8.05399 20.7443 7.78026L22.7427 6.9147C23.7074 6.51965 23.9216 6.51965 24.4936 7.4919L30.661 17.8822C30.6804 17.9174 30.6983 17.9504 30.7151 17.9814C30.853 18.2362 30.9146 18.3501 31.1186 18.3501C31.3227 18.3501 31.3843 18.2362 31.5222 17.9814C31.539 17.9504 31.5569 17.9174 31.5763 17.8822L37.7437 7.4919C38.3157 6.51965 38.5299 6.51965 39.4946 6.9147L41.4929 7.78026C42.1042 8.054 42.1032 8.42553 42.1015 9.04788L42.1013 9.14989V24.433H39.8136V9.45969C39.8136 9.24353 39.5643 9.13452 39.4216 9.38702ZM0.393778 9.1569C0.0713433 9.55645 0 9.74026 0 10.3955V21.1576C0 21.8119 0.0713433 21.9953 0.393778 22.3958L1.47041 23.7416C2.04394 24.433 2.37877 24.433 3.20339 24.433H15.5593V22.0935H2.97458C2.58033 22.0935 2.28814 21.7192 2.28814 21.3916V16.9464H15.1017V14.6068H2.28814V10.1616C2.28814 9.83487 2.58033 9.45969 2.97458 9.45969H15.5593V7.12011H3.20339C2.37877 7.12011 2.04394 7.12011 1.47041 7.8111L0.393778 9.1569ZM92.8344 9.1569C92.512 9.55645 92.4407 9.74026 92.4407 10.3955V21.1576C92.4407 21.8119 92.512 21.9953 92.8344 22.3958L93.9111 23.7416C94.4846 24.433 94.8195 24.433 95.6441 24.433H108V22.0935H95.4153C95.021 22.0935 94.7288 21.7192 94.7288 21.3916V10.1616C94.7288 9.83487 95.021 9.45969 95.4153 9.45969H108V7.12011H95.6441C94.8195 7.12011 94.4846 7.12011 93.9111 7.8111L92.8344 9.1569ZM85.4132 15.0747L82.4749 7.88396C82.2987 7.44868 81.9903 7.12011 81.4576 7.12011H75.9661C75.4334 7.12011 75.125 7.44868 74.9488 7.88396L68.1864 24.433H70.9322L76.8081 9.82352C76.9482 9.49542 77.1102 9.45969 77.339 9.45969H80.0847C80.3136 9.45969 80.4756 9.49542 80.6156 9.82352L82.7276 15.0747H76.6426L75.7472 17.4143H83.6686L86.4915 24.433H89.2373L86.3693 17.4143H89.0184L89.9138 15.0747H85.4132ZM60.6891 7.44114C61.1133 6.79003 61.5041 6.75401 62.2468 7.11465L63.9232 8.08406C64.5254 8.41055 64.5254 8.7361 64.5254 9.45877V24.433H62.2468L62.2373 9.69265C62.2373 9.45877 61.9992 9.32289 61.8569 9.53946L52.2623 23.9971C51.7667 24.7212 51.3773 24.8658 50.5284 24.3943L48.6155 23.382C48.0485 23.0735 48.0493 22.7649 48.051 22.1192C48.0511 22.0827 48.0512 22.0451 48.0512 22.0064V7.12002H50.339V21.8541C50.339 22.1072 50.5884 22.1806 50.7293 21.9631L60.6891 7.44114Z" fill="#FFFFFF"/>
<path fill-rule="evenodd" clip-rule="evenodd" d="M95.4879 0L94.5905 2.31884H81.2905L82.1878 0H95.4879ZM83.105 32L84.0023 29.6812H70.7022L69.8049 32H83.105Z" fill="#FFFFFF"/>
</svg>
